<svg id="Layer_2" data-name="Layer 2" xmlns="http://www.w3.org/2000/svg" viewBox="0 0 752 693.52"><defs><style>.cls-1{fill:red;stroke:red;stroke-miterlimit:10;stroke-width:2px;}</style></defs><title>pawprint</title><ellipse class="cls-1" cx="373.74" cy="277.46" rx="91.29" ry="121.28" transform="translate(-158.71 -99.01) rotate(-7.93)"/><ellipse class="cls-1" cx="211.86" cy="447.99" rx="84.85" ry="108.45" transform="translate(-238.55 -78.13) rotate(-15.89)"/><ellipse class="cls-1" cx="787.05" cy="447.99" rx="108.45" ry="84.85" transform="translate(-26.91 881.35) rotate(-70.02)"/><ellipse class="cls-1" cx="620.98" cy="279.13" rx="125.44" ry="91.82" transform="translate(134.82 702.41) rotate(-82.07)"/><path class="cls-1" d="M490.27,816.36c90,0,90.92,29.4,151.53,29.4S750.16,803.67,757.51,743s-42.24-129.57-90.92-163.1-67-158.58-176.32-158.58Z" transform="translate(-124 -153.24)"/><path class="cls-1" d="M492.93,816.36c-89.7,0-90.61,29.4-151,29.4s-108-42.09-115.32-102.8,42.1-129.57,90.61-163.1S384,421.28,492.93,421.28Z" transform="translate(-124 -153.24)"/></svg>